<svg xmlns="http://www.w3.org/2000/svg" viewBox="0 0 800 500" role="img" aria-labelledby="t d"><title id="t">Forearm plank exercise illustration</title><desc id="d">A clear vector illustration showing a person holding a straight-body forearm plank position on a fitness mat.</desc><defs><linearGradient id="b" x1="0" y1="0" x2="1" y2="1"><stop stop-color="#121a33"/><stop offset="1" stop-color="#25365b"/></linearGradient><linearGradient id="m"><stop stop-color="#ff4d4d"/><stop offset="1" stop-color="#ff9466"/></linearGradient></defs><rect width="800" height="500" rx="28" fill="url(#b)"/><circle cx="670" cy="105" r="65" fill="#ff4d4d" opacity=".12"/><path d="M90 385h620" stroke="#64749a" stroke-width="3" stroke-linecap="round"/><rect x="120" y="385" width="560" height="24" rx="12" fill="url(#m)" opacity=".95"/><g stroke-linecap="round" stroke-linejoin="round"><path d="M230 321 L300 300 L395 275 L505 285 L585 345" fill="none" stroke="#f0b38e" stroke-width="35"/><path d="M230 321 L300 300 L395 275 L505 285 L585 345" fill="none" stroke="#25365b" stroke-width="23"/><circle cx="210" cy="289" r="38" fill="#f0b38e" stroke="#25365b" stroke-width="8"/><path d="M186 273q24-30 48-2" fill="none" stroke="#25365b" stroke-width="12"/><path d="M585 345 L635 376 L664 376" fill="none" stroke="#f0b38e" stroke-width="24"/><path d="M635 376 L664 376" stroke="#25365b" stroke-width="8"/><path d="M300 300 L258 353 L224 375 L190 375" fill="none" stroke="#f0b38e" stroke-width="23"/><path d="M224 375 L190 375" stroke="#25365b" stroke-width="8"/></g><path d="M285 240h235" stroke="#8ee6d1" stroke-width="4" stroke-dasharray="9 10" opacity=".9"/><text x="400" y="90" text-anchor="middle" fill="#fff" font-family="Arial,sans-serif" font-size="28" font-weight="700">FOREARM PLANK</text><text x="400" y="125" text-anchor="middle" fill="#c7d3ef" font-family="Arial,sans-serif" font-size="17">Keep your body in a straight line</text><g fill="#8ee6d1"><circle cx="300" cy="300" r="7"/><circle cx="395" cy="275" r="7"/><circle cx="505" cy="285" r="7"/></g></svg>